├é┬ñ├é┬ñ├é┬ñ├é┬ñ├é┬ñ├é┬ñ├é┬ñ├é┬ñ Women.Without.Men.2009.DVDRiP.XviD.AC3(5.1).SWESUB-Zen_Bud ├é┬ñ├é┬ñ├é┬ñ├é┬ñ├é┬ñ├é┬ñ├é┬ñ├é┬ñ├é┬ñ├é┬ñ

Format                           : AVI
Format profile                   : OpenDML
File size                        : 1.36 GiB
Duration                         : 1h 35mn
Overall bit rate                 : 2 037 Kbps
Writing application              : AVI-Mux GUI 1.17.8.3

Video

Format                           : MPEG-4 Visual
Codec ID/Hint                    : XviD
Duration                         : 1h 35mn
Bit rate                         : 1 583 Kbps
Width                            : 688 pixels
Height                           : 288 pixels
Display aspect ratio             : 2.35:1
Stream size                      : 1.06 GiB (78%)
Writing library                  : XviD 1.2.0.dev47 (UTC 2006-11-01)

Audio

Format                           : AC-3
Duration                         : 1h 35mn
Bit rate                         : 448 Kbps
Channel(s)                       : 6 channels
Channel positions                : Front: L C R, Side: L R, LFE
Sampling rate                    : 48.0 KHz
Bit depth                        : 16 bits
Stream size                      : 307 MiB (22%)
Language                            : Persian



Against the tumultuous backdrop of Iran's 1953 CIA-backed coup d'├â┬⌐tat, the destinies of four women converge in a beautiful orchard garden, where they find independence, solace and companionship. 